# xmcd
#
# Track frame offsets:
#       150
#       13196
#       25025
#       36881
#       47691
#       63219
#       83656
#       111883
#       123945
#       135525
#       148016
#       176779
#       188234
#       206219
#
# Disc length: 2898 seconds
#
# Revision: 0
# Processed by: cddbd v1.5.1PL0 Copyright (c) Steve Scherf et al.
# Submitted via: WhereIsIt 3.52
#
DISCID=c20b500e
DTITLE=Nine Below Zero - Live at the Marquee
DYEAR=1990
DGENRE=Rock
TTITLE0=tore down
TTITLE1=straighten her out
TTITLE2=homework
TTITLE3=I can't help myself
TTITLE4=can I get a witness
TTITLE5=ridin'on the L and N
TTITLE6=I can't quit you baby
TTITLE7=stop your naggin'
TTITLE8=hootchie cootchie coo
TTITLE9=wolly bully
TTITLE10=got my Mojo working
TTITLE11=pack fair and square
TTITLE12=watch yourself
TTITLE13=swing job
EXTD=
EXTT0=
EXTT1=
EXTT2=
EXTT3=
EXTT4=
EXTT5=
EXTT6=
EXTT7=
EXTT8=
EXTT9=
EXTT10=
EXTT11=
EXTT12=
EXTT13=
PLAYORDER=
